<?xml version="1.0" encoding="UTF-8" standalone="no"?>
<!DOCTYPE svg PUBLIC "-//W3C//DTD SVG 1.1//EN"
 "http://www.w3.org/Graphics/SVG/1.1/DTD/svg11.dtd">
<!-- Generated by graphviz version 7.1.0 (20230121.1956)
 -->
<!-- Title: finite_state_machine Pages: 1 -->
<svg width="579pt" height="504pt"
 viewBox="0.00 0.00 579.00 503.79" xmlns="http://www.w3.org/2000/svg" xmlns:xlink="http://www.w3.org/1999/xlink">
<g id="graph0" class="graph" transform="scale(1 1) rotate(0) translate(4 499.79)">
<title>finite_state_machine</title>
<polygon fill="white" stroke="none" points="-4,4 -4,-499.79 575,-499.79 575,4 -4,4"/>
<!-- 99 -->
<g id="node1" class="node">
<title>99</title>
<ellipse fill="none" stroke="black" cx="254" cy="-24.8" rx="20.63" ry="20.63"/>
<ellipse fill="none" stroke="black" cx="254" cy="-24.8" rx="24.6" ry="24.6"/>
<text text-anchor="middle" x="254" y="-21.1" font-family="Helvetica,Arial,sans-serif" font-size="14.00">99</text>
</g>
<!-- 0 -->
<g id="node2" class="node">
<title>0</title>
<ellipse fill="none" stroke="black" cx="219" cy="-477.79" rx="18" ry="18"/>
<text text-anchor="middle" x="219" y="-474.09" font-family="Helvetica,Arial,sans-serif" font-size="14.00">0</text>
</g>
<!-- 0&#45;&gt;99 -->
<g id="edge1" class="edge">
<title>0&#45;&gt;99</title>
<path fill="none" stroke="black" d="M201.08,-473.61C148.77,-463.83 0,-432.21 0,-388.99 0,-388.99 0,-388.99 0,-117.6 0,-83.22 28.16,-82.77 59,-67.6 110.5,-42.27 177.05,-32.22 217.58,-28.28"/>
<polygon fill="black" stroke="black" points="217.87,-31.76 227.52,-27.39 217.25,-24.79 217.87,-31.76"/>
<text text-anchor="middle" x="18.5" y="-245.4" font-family="Helvetica,Arial,sans-serif" font-size="14.00"> EOF </text>
</g>
<!-- 1 -->
<g id="node3" class="node">
<title>1</title>
<ellipse fill="none" stroke="black" cx="93" cy="-387.99" rx="18" ry="18"/>
<text text-anchor="middle" x="93" y="-384.29" font-family="Helvetica,Arial,sans-serif" font-size="14.00">1</text>
</g>
<!-- 0&#45;&gt;1 -->
<g id="edge2" class="edge">
<title>0&#45;&gt;1</title>
<path fill="none" stroke="black" d="M203.56,-467.64C192.18,-460.77 176.41,-451.01 163,-441.79 146.95,-430.75 129.46,-417.56 115.98,-407.12"/>
<polygon fill="black" stroke="black" points="118.18,-404.4 108.14,-401.01 113.87,-409.92 118.18,-404.4"/>
<text text-anchor="middle" x="169.5" y="-430.59" font-family="Helvetica,Arial,sans-serif" font-size="14.00"> &quot; </text>
</g>
<!-- 11 -->
<g id="node4" class="node">
<title>11</title>
<ellipse fill="none" stroke="black" cx="185" cy="-387.99" rx="20.6" ry="20.6"/>
<text text-anchor="middle" x="185" y="-384.29" font-family="Helvetica,Arial,sans-serif" font-size="14.00">11</text>
</g>
<!-- 0&#45;&gt;11 -->
<g id="edge3" class="edge">
<title>0&#45;&gt;11</title>
<path fill="none" stroke="black" d="M212.76,-460.69C208.2,-448.89 201.87,-432.54 196.4,-418.44"/>
<polygon fill="black" stroke="black" points="199.68,-417.21 192.81,-409.15 193.15,-419.74 199.68,-417.21"/>
<text text-anchor="middle" x="210.5" y="-430.59" font-family="Helvetica,Arial,sans-serif" font-size="14.00"> &#39; </text>
</g>
<!-- 2 -->
<g id="node5" class="node">
<title>2</title>
<ellipse fill="none" stroke="black" cx="331" cy="-387.99" rx="18" ry="18"/>
<text text-anchor="middle" x="331" y="-384.29" font-family="Helvetica,Arial,sans-serif" font-size="14.00">2</text>
</g>
<!-- 0&#45;&gt;2 -->
<g id="edge4" class="edge">
<title>0&#45;&gt;2</title>
<path fill="none" stroke="black" d="M235.06,-469.16C247.83,-462.72 265.84,-452.82 280,-441.79 291.66,-432.7 303.23,-421.01 312.39,-410.94"/>
<polygon fill="black" stroke="black" points="314.75,-413.55 318.76,-403.74 309.51,-408.91 314.75,-413.55"/>
<text text-anchor="middle" x="304.5" y="-430.59" font-family="Helvetica,Arial,sans-serif" font-size="14.00"> .* </text>
</g>
<!-- 1&#45;&gt;99 -->
<g id="edge5" class="edge">
<title>1&#45;&gt;99</title>
<path fill="none" stroke="black" d="M82.23,-373.12C70.08,-356.06 52,-325.74 52,-296.39 52,-296.39 52,-296.39 52,-117.6 52,-45.52 159.91,-29.76 217.99,-26.5"/>
<polygon fill="black" stroke="black" points="217.89,-30.01 227.72,-26.06 217.57,-23.02 217.89,-30.01"/>
<text text-anchor="middle" x="70.5" y="-201.9" font-family="Helvetica,Arial,sans-serif" font-size="14.00"> EOF </text>
</g>
<!-- 1&#45;&gt;0 -->
<g id="edge7" class="edge">
<title>1&#45;&gt;0</title>
<path fill="none" stroke="black" d="M100.14,-404.77C106.12,-416.41 115.65,-431.88 128,-441.79 146.15,-456.35 171.05,-465.37 190.21,-470.59"/>
<polygon fill="black" stroke="black" points="189.27,-473.97 199.82,-473.01 190.98,-467.18 189.27,-473.97"/>
<text text-anchor="middle" x="133.5" y="-430.59" font-family="Helvetica,Arial,sans-serif" font-size="14.00"> &#39; </text>
</g>
<!-- 1&#45;&gt;1 -->
<g id="edge8" class="edge">
<title>1&#45;&gt;1</title>
<path fill="none" stroke="black" d="M109.29,-396.06C119.39,-398 129,-395.32 129,-387.99 129,-383.64 125.61,-380.93 120.74,-379.85"/>
<polygon fill="black" stroke="black" points="120.78,-376.35 110.8,-379.91 120.83,-383.35 120.78,-376.35"/>
<text text-anchor="middle" x="137.5" y="-384.29" font-family="Helvetica,Arial,sans-serif" font-size="14.00"> .* </text>
</g>
<!-- 3 -->
<g id="node6" class="node">
<title>3</title>
<ellipse fill="none" stroke="black" cx="117" cy="-295.39" rx="18" ry="18"/>
<text text-anchor="middle" x="117" y="-291.69" font-family="Helvetica,Arial,sans-serif" font-size="14.00">3</text>
</g>
<!-- 1&#45;&gt;3 -->
<g id="edge6" class="edge">
<title>1&#45;&gt;3</title>
<path fill="none" stroke="black" d="M88.97,-369.95C87.21,-359.41 86.3,-345.73 90,-334.19 91.83,-328.48 94.87,-322.9 98.27,-317.86"/>
<polygon fill="black" stroke="black" points="100.88,-320.22 104.11,-310.13 95.29,-316 100.88,-320.22"/>
<text text-anchor="middle" x="96" y="-337.99" font-family="Helvetica,Arial,sans-serif" font-size="14.00"> \ </text>
</g>
<!-- 11&#45;&gt;99 -->
<g id="edge9" class="edge">
<title>11&#45;&gt;99</title>
<path fill="none" stroke="black" d="M181.09,-367.44C174.58,-331.38 163.59,-252.17 178,-187.6 188.95,-138.54 216.47,-86.79 235.2,-55.39"/>
<polygon fill="black" stroke="black" points="237.96,-57.6 240.16,-47.24 231.98,-53.96 237.96,-57.6"/>
<text text-anchor="middle" x="196.5" y="-201.9" font-family="Helvetica,Arial,sans-serif" font-size="14.00"> EOF </text>
</g>
<!-- 11&#45;&gt;0 -->
<g id="edge11" class="edge">
<title>11&#45;&gt;0</title>
<path fill="none" stroke="black" d="M180.98,-408.5C179.75,-418.78 179.68,-431.37 184,-441.79 186.65,-448.2 191.11,-454.04 195.98,-459.05"/>
<polygon fill="black" stroke="black" points="193.43,-461.46 203.18,-465.6 198.14,-456.28 193.43,-461.46"/>
<text text-anchor="middle" x="189.5" y="-430.59" font-family="Helvetica,Arial,sans-serif" font-size="14.00"> &#39; </text>
</g>
<!-- 11&#45;&gt;11 -->
<g id="edge12" class="edge">
<title>11&#45;&gt;11</title>
<path fill="none" stroke="black" d="M204.16,-396.31C214.44,-397.73 223.8,-394.95 223.8,-387.99 223.8,-383.86 220.5,-381.2 215.67,-380.02"/>
<polygon fill="black" stroke="black" points="215.78,-376.52 205.68,-379.71 215.57,-383.52 215.78,-376.52"/>
<text text-anchor="middle" x="232.3" y="-384.29" font-family="Helvetica,Arial,sans-serif" font-size="14.00"> .* </text>
</g>
<!-- 13 -->
<g id="node7" class="node">
<title>13</title>
<ellipse fill="none" stroke="black" cx="212" cy="-295.39" rx="20.6" ry="20.6"/>
<text text-anchor="middle" x="212" y="-291.69" font-family="Helvetica,Arial,sans-serif" font-size="14.00">13</text>
</g>
<!-- 11&#45;&gt;13 -->
<g id="edge10" class="edge">
<title>11&#45;&gt;13</title>
<path fill="none" stroke="black" d="M199.38,-372.89C205.1,-366.3 211.02,-357.96 214,-349.19 216.33,-342.32 217.03,-334.65 216.89,-327.34"/>
<polygon fill="black" stroke="black" points="220.38,-327.16 216.14,-317.45 213.4,-327.68 220.38,-327.16"/>
<text text-anchor="middle" x="222" y="-337.99" font-family="Helvetica,Arial,sans-serif" font-size="14.00"> \ </text>
</g>
<!-- 2&#45;&gt;99 -->
<g id="edge13" class="edge">
<title>2&#45;&gt;99</title>
<path fill="none" stroke="black" d="M327.39,-370.05C315.51,-314.32 277.46,-135.87 261.34,-60.22"/>
<polygon fill="black" stroke="black" points="264.77,-59.52 259.26,-50.47 257.92,-60.98 264.77,-59.52"/>
<text text-anchor="middle" x="313.5" y="-201.9" font-family="Helvetica,Arial,sans-serif" font-size="14.00"> EOF </text>
</g>
<!-- 2&#45;&gt;0 -->
<g id="edge17" class="edge">
<title>2&#45;&gt;0</title>
<path fill="none" stroke="black" d="M330.46,-406.16C329.23,-417.57 325.86,-432.16 317,-441.79 299.36,-460.98 270.47,-469.65 248.62,-473.57"/>
<polygon fill="black" stroke="black" points="248.18,-470.1 238.82,-475.07 249.23,-477.02 248.18,-470.1"/>
<text text-anchor="middle" x="333.5" y="-430.59" font-family="Helvetica,Arial,sans-serif" font-size="14.00"> .* </text>
</g>
<!-- 2&#45;&gt;2 -->
<g id="edge14" class="edge">
<title>2&#45;&gt;2</title>
<path fill="none" stroke="black" d="M347.29,-396.06C357.39,-398 367,-395.32 367,-387.99 367,-383.64 363.61,-380.93 358.74,-379.85"/>
<polygon fill="black" stroke="black" points="358.78,-376.35 348.8,-379.91 358.83,-383.35 358.78,-376.35"/>
<text text-anchor="middle" x="387" y="-384.29" font-family="Helvetica,Arial,sans-serif" font-size="14.00"> blank </text>
</g>
<!-- 4 -->
<g id="node8" class="node">
<title>4</title>
<ellipse fill="none" stroke="black" cx="328" cy="-118.6" rx="18" ry="18"/>
<text text-anchor="middle" x="328" y="-114.9" font-family="Helvetica,Arial,sans-serif" font-size="14.00">4</text>
</g>
<!-- 2&#45;&gt;4 -->
<g id="edge15" class="edge">
<title>2&#45;&gt;4</title>
<path fill="none" stroke="black" d="M336.45,-370.54C347.06,-336.21 368.21,-254.58 354,-187.6 352.18,-179.03 349.26,-177.72 346,-169.6 343.03,-162.21 340.02,-154.11 337.33,-146.63"/>
<polygon fill="black" stroke="black" points="340.68,-145.61 334.05,-137.35 334.08,-147.94 340.68,-145.61"/>
<text text-anchor="middle" x="364.5" y="-245.4" font-family="Helvetica,Arial,sans-serif" font-size="14.00"> &quot; </text>
</g>
<!-- 14 -->
<g id="node9" class="node">
<title>14</title>
<ellipse fill="none" stroke="black" cx="443" cy="-295.39" rx="20.6" ry="20.6"/>
<text text-anchor="middle" x="443" y="-291.69" font-family="Helvetica,Arial,sans-serif" font-size="14.00">14</text>
</g>
<!-- 2&#45;&gt;14 -->
<g id="edge16" class="edge">
<title>2&#45;&gt;14</title>
<path fill="none" stroke="black" d="M346.75,-378.67C359.5,-371.59 377.65,-360.77 392,-349.19 402.78,-340.49 413.61,-329.66 422.49,-320.08"/>
<polygon fill="black" stroke="black" points="424.92,-322.61 429.03,-312.84 419.73,-317.91 424.92,-322.61"/>
<text text-anchor="middle" x="413.5" y="-337.99" font-family="Helvetica,Arial,sans-serif" font-size="14.00"> &#39; </text>
</g>
<!-- 3&#45;&gt;99 -->
<g id="edge18" class="edge">
<title>3&#45;&gt;99</title>
<path fill="none" stroke="black" d="M113.93,-277.24C107.44,-234.98 97.34,-125.11 155,-67.6 172.39,-50.25 198.07,-39.7 218.91,-33.53"/>
<polygon fill="black" stroke="black" points="219.72,-36.94 228.46,-30.94 217.89,-30.18 219.72,-36.94"/>
<text text-anchor="middle" x="131.5" y="-158.4" font-family="Helvetica,Arial,sans-serif" font-size="14.00"> EOF </text>
</g>
<!-- 3&#45;&gt;1 -->
<g id="edge19" class="edge">
<title>3&#45;&gt;1</title>
<path fill="none" stroke="black" d="M112.54,-313.21C109.1,-326.21 104.26,-344.48 100.26,-359.58"/>
<polygon fill="black" stroke="black" points="96.97,-358.35 97.79,-368.91 103.73,-360.14 96.97,-358.35"/>
<text text-anchor="middle" x="114.5" y="-337.99" font-family="Helvetica,Arial,sans-serif" font-size="14.00"> .* </text>
</g>
<!-- 13&#45;&gt;99 -->
<g id="edge20" class="edge">
<title>13&#45;&gt;99</title>
<path fill="none" stroke="black" d="M213.98,-274.42C216.78,-247.24 222.3,-197.1 229,-154.6 234.08,-122.4 241.29,-85.96 246.66,-60.08"/>
<polygon fill="black" stroke="black" points="250.05,-60.97 248.68,-50.46 243.2,-59.53 250.05,-60.97"/>
<text text-anchor="middle" x="247.5" y="-158.4" font-family="Helvetica,Arial,sans-serif" font-size="14.00"> EOF </text>
</g>
<!-- 13&#45;&gt;11 -->
<g id="edge21" class="edge">
<title>13&#45;&gt;11</title>
<path fill="none" stroke="black" d="M201.91,-313.6C198.61,-319.9 195.23,-327.19 193,-334.19 190.81,-341.07 189.22,-348.64 188.05,-355.85"/>
<polygon fill="black" stroke="black" points="184.61,-355.21 186.72,-365.6 191.54,-356.16 184.61,-355.21"/>
<text text-anchor="middle" x="201.5" y="-337.99" font-family="Helvetica,Arial,sans-serif" font-size="14.00"> .* </text>
</g>
<!-- 4&#45;&gt;99 -->
<g id="edge22" class="edge">
<title>4&#45;&gt;99</title>
<path fill="none" stroke="black" d="M318.8,-102.7C312.28,-92.51 303.11,-78.86 294,-67.6 289.44,-61.96 284.27,-56.18 279.2,-50.78"/>
<polygon fill="black" stroke="black" points="281.92,-48.56 272.46,-43.79 276.88,-53.42 281.92,-48.56"/>
<text text-anchor="middle" x="323.5" y="-71.4" font-family="Helvetica,Arial,sans-serif" font-size="14.00"> EOF </text>
</g>
<!-- 4&#45;&gt;0 -->
<g id="edge23" class="edge">
<title>4&#45;&gt;0</title>
<path fill="none" stroke="black" d="M316.96,-133.28C306.97,-146.42 292.68,-167.21 285,-187.6 249.9,-280.73 278.68,-313.48 250,-408.79 245.6,-423.39 238.71,-438.93 232.54,-451.45"/>
<polygon fill="black" stroke="black" points="229.48,-449.74 228.06,-460.24 235.72,-452.92 229.48,-449.74"/>
<text text-anchor="middle" x="271.5" y="-291.69" font-family="Helvetica,Arial,sans-serif" font-size="14.00"> &quot; </text>
</g>
<!-- 4&#45;&gt;4 -->
<g id="edge25" class="edge">
<title>4&#45;&gt;4</title>
<path fill="none" stroke="black" d="M344.66,-126.24C354.62,-127.94 364,-125.39 364,-118.6 364,-114.56 360.69,-112.02 355.92,-110.98"/>
<polygon fill="black" stroke="black" points="356.19,-107.48 346.18,-110.95 356.17,-114.48 356.19,-107.48"/>
<text text-anchor="middle" x="372.5" y="-114.9" font-family="Helvetica,Arial,sans-serif" font-size="14.00"> .* </text>
</g>
<!-- 5 -->
<g id="node10" class="node">
<title>5</title>
<ellipse fill="none" stroke="black" cx="428" cy="-205.6" rx="18" ry="18"/>
<text text-anchor="middle" x="428" y="-201.9" font-family="Helvetica,Arial,sans-serif" font-size="14.00">5</text>
</g>
<!-- 4&#45;&gt;5 -->
<g id="edge24" class="edge">
<title>4&#45;&gt;5</title>
<path fill="none" stroke="black" d="M336.56,-134.98C343.06,-145.66 352.78,-159.68 364,-169.6 370.22,-175.1 386.87,-184.15 401.63,-191.67"/>
<polygon fill="black" stroke="black" points="400,-194.77 410.51,-196.12 403.14,-188.51 400,-194.77"/>
<text text-anchor="middle" x="370" y="-158.4" font-family="Helvetica,Arial,sans-serif" font-size="14.00"> \ </text>
</g>
<!-- 14&#45;&gt;99 -->
<g id="edge26" class="edge">
<title>14&#45;&gt;99</title>
<path fill="none" stroke="black" d="M450.33,-275.85C463.65,-238.83 487.17,-154.71 450,-100.6 414.05,-48.26 336.18,-32.52 290.14,-27.8"/>
<polygon fill="black" stroke="black" points="290.67,-24.33 280.4,-26.93 290.05,-31.3 290.67,-24.33"/>
<text text-anchor="middle" x="487.5" y="-158.4" font-family="Helvetica,Arial,sans-serif" font-size="14.00"> EOF </text>
</g>
<!-- 14&#45;&gt;0 -->
<g id="edge27" class="edge">
<title>14&#45;&gt;0</title>
<path fill="none" stroke="black" d="M443.22,-316.11C442.48,-340.48 437.78,-382.01 416,-408.79 374.46,-459.84 292.49,-472.67 248.52,-475.83"/>
<polygon fill="black" stroke="black" points="248.48,-472.32 238.7,-476.4 248.89,-479.31 248.48,-472.32"/>
<text text-anchor="middle" x="440.5" y="-384.29" font-family="Helvetica,Arial,sans-serif" font-size="14.00"> &#39; </text>
</g>
<!-- 14&#45;&gt;14 -->
<g id="edge29" class="edge">
<title>14&#45;&gt;14</title>
<path fill="none" stroke="black" d="M462.16,-303.72C472.44,-305.13 481.8,-302.36 481.8,-295.39 481.8,-291.26 478.5,-288.6 473.67,-287.42"/>
<polygon fill="black" stroke="black" points="473.78,-283.92 463.68,-287.12 473.57,-290.92 473.78,-283.92"/>
<text text-anchor="middle" x="490.3" y="-291.69" font-family="Helvetica,Arial,sans-serif" font-size="14.00"> .* </text>
</g>
<!-- 14&#45;&gt;5 -->
<g id="edge28" class="edge">
<title>14&#45;&gt;5</title>
<path fill="none" stroke="black" d="M439.67,-274.91C437.66,-263.15 435.07,-247.97 432.84,-234.9"/>
<polygon fill="black" stroke="black" points="436.3,-234.41 431.17,-225.15 429.4,-235.59 436.3,-234.41"/>
<text text-anchor="middle" x="442" y="-245.4" font-family="Helvetica,Arial,sans-serif" font-size="14.00"> \ </text>
</g>
<!-- 5&#45;&gt;99 -->
<g id="edge30" class="edge">
<title>5&#45;&gt;99</title>
<path fill="none" stroke="black" d="M425.15,-187.52C420.78,-165.5 410.64,-126.92 390,-100.6 364.16,-67.64 319.57,-47.13 288.52,-36.1"/>
<polygon fill="black" stroke="black" points="289.78,-32.83 279.19,-32.95 287.54,-39.47 289.78,-32.83"/>
<text text-anchor="middle" x="427.5" y="-114.9" font-family="Helvetica,Arial,sans-serif" font-size="14.00"> EOF </text>
</g>
<!-- 5&#45;&gt;4 -->
<g id="edge31" class="edge">
<title>5&#45;&gt;4</title>
<path fill="none" stroke="black" d="M416.04,-192.19C405.77,-181.76 390.39,-166.67 376,-154.6 368.44,-148.26 359.84,-141.77 352.01,-136.13"/>
<polygon fill="black" stroke="black" points="354.09,-133.31 343.9,-130.39 350.04,-139.03 354.09,-133.31"/>
<text text-anchor="middle" x="400.5" y="-158.4" font-family="Helvetica,Arial,sans-serif" font-size="14.00"> .* </text>
</g>
<!-- 15 -->
<g id="node11" class="node">
<title>15</title>
<ellipse fill="none" stroke="black" cx="514" cy="-387.99" rx="20.6" ry="20.6"/>
<text text-anchor="middle" x="514" y="-384.29" font-family="Helvetica,Arial,sans-serif" font-size="14.00">15</text>
</g>
<!-- 15&#45;&gt;99 -->
<g id="edge32" class="edge">
<title>15&#45;&gt;99</title>
<path fill="none" stroke="black" d="M520.66,-368.17C526.48,-350.03 534,-321.68 534,-296.39 534,-296.39 534,-296.39 534,-117.6 534,-66.73 365.04,-39.5 289.62,-29.87"/>
<polygon fill="black" stroke="black" points="290.21,-26.42 279.86,-28.67 289.35,-33.37 290.21,-26.42"/>
<text text-anchor="middle" x="552.5" y="-201.9" font-family="Helvetica,Arial,sans-serif" font-size="14.00"> EOF </text>
</g>
<!-- 15&#45;&gt;14 -->
<g id="edge33" class="edge">
<title>15&#45;&gt;14</title>
<path fill="none" stroke="black" d="M501.63,-371.21C490.81,-357.39 474.89,-337.09 462.38,-321.12"/>
<polygon fill="black" stroke="black" points="465.32,-319.2 456.4,-313.49 459.81,-323.52 465.32,-319.2"/>
<text text-anchor="middle" x="490.5" y="-337.99" font-family="Helvetica,Arial,sans-serif" font-size="14.00"> .* </text>
</g>
</g>
</svg>
